# xmcd
#
# Track frame offsets: 
#        150
#        20790
#        50623
#
# Disc length: 1004 seconds
#
# Revision: 0
# Processed by: cddbd v1.5.2PL0 Copyright (c) Steve Scherf et al.
# Submitted via: ExactAudioCopy v1.0b3
#
DISCID=2303ea03
DTITLE=Digital Underground - Wussup Wit The Luv 
DYEAR=1994
DGENRE=Hip-Hop
TTITLE0=Wussup Wit The Luv (Radio Edit)
TTITLE1=Wussup Wit The Luv Extended Radio Mix)
TTITLE2=Wussup Wit The Luv (Instrumental)
EXTD=
EXTT0=
EXTT1=
EXTT2=
PLAYORDER=
